<svg xmlns="http://www.w3.org/2000/svg" width="390" height="844" viewBox="0 0 390 844">

  <!-- Background -->
  <rect width="390" height="844" fill="#F7F8FB"/>

  <!-- Status bar -->
  <text x="28" y="18" font-size="12" font-weight="600" fill="#070A12" font-family="system-ui, -apple-system, sans-serif">9:41</text>
  <text x="362" y="18" font-size="12" fill="#070A12" font-family="system-ui, -apple-system, sans-serif" text-anchor="end">●●● 100%</text>

  <!-- ── Header ── -->
  <text x="28" y="72" font-size="24" fill="#070A12" font-family="Georgia, 'Times New Roman', serif">Who are you looking for?</text>
  <!-- Filter icon (3 lines) -->
  <line x1="344" y1="60" x2="362" y2="60" stroke="#070A12" stroke-width="2" stroke-linecap="round"/>
  <line x1="344" y1="67" x2="362" y2="67" stroke="#070A12" stroke-width="2" stroke-linecap="round"/>
  <line x1="344" y1="74" x2="362" y2="74" stroke="#070A12" stroke-width="2" stroke-linecap="round"/>

  <!-- ── Tabs ── -->
  <rect x="28" y="90" width="157" height="33" rx="8" fill="#F8F1DA"/>
  <text x="107" y="111" font-size="13" font-weight="700" font-style="italic" fill="#070A12" font-family="system-ui, -apple-system, sans-serif" text-anchor="middle">Local</text>
  <rect x="197" y="90" width="165" height="33" rx="8" fill="#F7F8FB"/>
  <text x="280" y="111" font-size="13" font-weight="700" font-style="italic" fill="#7B8799" font-family="system-ui, -apple-system, sans-serif" text-anchor="middle">Discover</text>

  <!-- ── Local banner ── -->
  <rect x="28" y="143" width="334" height="36" rx="8" fill="#F8F1DA"/>
  <text x="42" y="165" font-size="13" font-weight="600" fill="#070A12" font-family="system-ui, -apple-system, sans-serif">Brothers who attend Masjid Sunnah Nelson</text>

  <!-- ══════════════════════════════════════ -->
  <!-- Profile Card 1: Abu_Khalid            -->
  <!-- ══════════════════════════════════════ -->
  <rect x="28" y="199" width="334" height="155" rx="12" fill="#FFFFFF" stroke="#E7EAF0" stroke-width="1"/>

  <!-- Username + age + flag -->
  <text x="44" y="232" font-size="20" fill="#070A12" font-family="Georgia, 'Times New Roman', serif">Abu_Khalid</text>
  <rect x="163" y="218" width="28" height="20" rx="4" fill="#F8F1DA"/>
  <text x="177" y="232" font-size="12" font-weight="600" fill="#070A12" font-family="system-ui" text-anchor="middle">28</text>
  <text x="198" y="232" font-size="15" font-family="system-ui">🇬🇧</text>

  <!-- Verification badge -->
  <rect x="44" y="244" width="218" height="20" rx="4" fill="#EAF5EE" stroke="#17803A" stroke-width="1"/>
  <text x="52" y="257" font-size="10" font-weight="600" fill="#17803A" font-family="system-ui, -apple-system, sans-serif">🕌 Masjid Sunnah Nelson (Verified)</text>

  <!-- Info row -->
  <text x="44" y="285" font-size="12" fill="#7B8799" font-family="system-ui, -apple-system, sans-serif">🇬🇧 Birmingham, United Kingdom</text>
  <text x="230" y="285" font-size="12" fill="#7B8799" font-family="system-ui, -apple-system, sans-serif">🌍 Arab</text>

  <!-- Compatibility bar -->
  <rect x="44" y="298" width="240" height="4" rx="2" fill="#E7EAF0"/>
  <rect x="44" y="298" width="204" height="4" rx="2" fill="#F2CC66"/>
  <text x="352" y="302" font-size="11" font-weight="600" fill="#7B8799" font-family="system-ui, -apple-system, sans-serif" text-anchor="end">85% match</text>

  <!-- Tags -->
  <rect x="44" y="314" width="90" height="24" rx="4" fill="#EAF5EE"/>
  <text x="89" y="330" font-size="11" fill="#17803A" font-family="system-ui, -apple-system, sans-serif" text-anchor="middle">Never Married</text>
  <rect x="142" y="314" width="40" height="24" rx="4" fill="#F8F1DA"/>
  <text x="162" y="330" font-size="11" fill="#070A12" font-family="system-ui, -apple-system, sans-serif" text-anchor="middle">Lean</text>
  <rect x="190" y="314" width="54" height="24" rx="4" fill="#F8F1DA"/>
  <text x="217" y="330" font-size="11" fill="#070A12" font-family="system-ui, -apple-system, sans-serif" text-anchor="middle">5x a Day</text>

  <!-- ══════════════════════════════════════ -->
  <!-- Profile Card 2: Yusuf_Nelson          -->
  <!-- ══════════════════════════════════════ -->
  <rect x="28" y="374" width="334" height="155" rx="12" fill="#FFFFFF" stroke="#E7EAF0" stroke-width="1"/>

  <!-- Username + age + flag -->
  <text x="44" y="407" font-size="20" fill="#070A12" font-family="Georgia, 'Times New Roman', serif">Yusuf_Nelson</text>
  <rect x="173" y="393" width="28" height="20" rx="4" fill="#F8F1DA"/>
  <text x="187" y="407" font-size="12" font-weight="600" fill="#070A12" font-family="system-ui" text-anchor="middle">31</text>
  <text x="208" y="407" font-size="15" font-family="system-ui">🇬🇧</text>

  <!-- Verification badge -->
  <rect x="44" y="419" width="218" height="20" rx="4" fill="#EAF5EE" stroke="#17803A" stroke-width="1"/>
  <text x="52" y="432" font-size="10" font-weight="600" fill="#17803A" font-family="system-ui, -apple-system, sans-serif">🕌 Masjid Sunnah Nelson (Verified)</text>

  <!-- Info row -->
  <text x="44" y="460" font-size="12" fill="#7B8799" font-family="system-ui, -apple-system, sans-serif">🇬🇧 Nelson, United Kingdom</text>
  <text x="207" y="460" font-size="12" fill="#7B8799" font-family="system-ui, -apple-system, sans-serif">🌍 Pakistani</text>

  <!-- Compatibility bar -->
  <rect x="44" y="473" width="240" height="4" rx="2" fill="#E7EAF0"/>
  <rect x="44" y="473" width="173" height="4" rx="2" fill="#F2CC66"/>
  <text x="352" y="477" font-size="11" font-weight="600" fill="#7B8799" font-family="system-ui, -apple-system, sans-serif" text-anchor="end">72% match</text>

  <!-- Tags -->
  <rect x="44" y="489" width="58" height="24" rx="4" fill="#F8F1DA"/>
  <text x="73" y="505" font-size="11" fill="#070A12" font-family="system-ui, -apple-system, sans-serif" text-anchor="middle">Divorced</text>
  <rect x="110" y="489" width="58" height="24" rx="4" fill="#F8F1DA"/>
  <text x="139" y="505" font-size="11" fill="#070A12" font-family="system-ui, -apple-system, sans-serif" text-anchor="middle">Muscular</text>
  <rect x="176" y="489" width="96" height="24" rx="4" fill="#F8F1DA"/>
  <text x="224" y="505" font-size="11" fill="#070A12" font-family="system-ui, -apple-system, sans-serif" text-anchor="middle">Prays Regularly</text>

  <!-- ══════════════════════════════════════ -->
  <!-- Profile Card 3: AbdullahManc          -->
  <!-- ══════════════════════════════════════ -->
  <rect x="28" y="549" width="334" height="138" rx="12" fill="#FFFFFF" stroke="#E7EAF0" stroke-width="1"/>

  <!-- Username + age + flag -->
  <text x="44" y="582" font-size="20" fill="#070A12" font-family="Georgia, 'Times New Roman', serif">AbdullahManc</text>
  <rect x="183" y="568" width="28" height="20" rx="4" fill="#F8F1DA"/>
  <text x="197" y="582" font-size="12" font-weight="600" fill="#070A12" font-family="system-ui" text-anchor="middle">26</text>
  <text x="218" y="582" font-size="15" font-family="system-ui">🇬🇧</text>

  <!-- Info row (no verification) -->
  <text x="44" y="612" font-size="12" fill="#7B8799" font-family="system-ui, -apple-system, sans-serif">🇬🇧 Manchester, United Kingdom</text>
  <text x="237" y="612" font-size="12" fill="#7B8799" font-family="system-ui, -apple-system, sans-serif">🌍 Somali</text>

  <!-- Compatibility bar -->
  <rect x="44" y="625" width="240" height="4" rx="2" fill="#E7EAF0"/>
  <rect x="44" y="625" width="154" height="4" rx="2" fill="#F2CC66"/>
  <text x="352" y="629" font-size="11" font-weight="600" fill="#7B8799" font-family="system-ui, -apple-system, sans-serif" text-anchor="end">64% match</text>

  <!-- Tags -->
  <rect x="44" y="641" width="90" height="24" rx="4" fill="#EAF5EE"/>
  <text x="89" y="657" font-size="11" fill="#17803A" font-family="system-ui, -apple-system, sans-serif" text-anchor="middle">Never Married</text>
  <rect x="142" y="641" width="52" height="24" rx="4" fill="#F8F1DA"/>
  <text x="168" y="657" font-size="11" fill="#070A12" font-family="system-ui, -apple-system, sans-serif" text-anchor="middle">Average</text>

  <!-- ── Bottom Navbar ── -->
  <rect x="0" y="756" width="390" height="88" fill="#FFFFFF"/>
  <line x1="0" y1="756" x2="390" y2="756" stroke="#E7EAF0" stroke-width="1"/>

  <!-- Interests (heart, inactive) -->
  <path d="M64 790 L56 782 Q53 779 55.5 776.5 Q58 774 61 776.5 L64 779.5 L67 776.5 Q70 774 72.5 776.5 Q75 779 72 782 Z" fill="none" stroke="#7B8799" stroke-width="1.8" stroke-linejoin="round"/>
  <text x="64" y="808" font-size="12" fill="#7B8799" font-family="system-ui, -apple-system, sans-serif" text-anchor="middle">Interests</text>

  <!-- Search (active, gold) -->
  <circle cx="149" cy="779" r="7" stroke="#F2CC66" stroke-width="2" fill="none"/>
  <line x1="154" y1="784" x2="159" y2="789" stroke="#F2CC66" stroke-width="2" stroke-linecap="round"/>
  <text x="151" y="808" font-size="12" font-weight="700" font-style="italic" fill="#F2CC66" font-family="system-ui, -apple-system, sans-serif" text-anchor="middle">Search</text>

  <!-- Notifications (bell, inactive) -->
  <path d="M239 770 Q231 770 231 778 L229 784 L249 784 L247 778 Q247 770 239 770 Z" fill="none" stroke="#7B8799" stroke-width="1.8" stroke-linecap="round" stroke-linejoin="round"/>
  <path d="M237 784 Q237 788 239 788 Q241 788 241 784" fill="none" stroke="#7B8799" stroke-width="1.8" stroke-linecap="round"/>
  <text x="239" y="808" font-size="12" fill="#7B8799" font-family="system-ui, -apple-system, sans-serif" text-anchor="middle">Notifications</text>

  <!-- Settings (gear, inactive) -->
  <circle cx="326" cy="779" r="3.5" stroke="#7B8799" stroke-width="1.8" fill="none"/>
  <circle cx="326" cy="779" r="8" stroke="#7B8799" stroke-width="1.8" fill="none" stroke-dasharray="2.8 2.42"/>
  <text x="326" y="808" font-size="12" fill="#7B8799" font-family="system-ui, -apple-system, sans-serif" text-anchor="middle">Settings</text>

  <!-- Home indicator -->
  <rect x="155" y="833" width="80" height="4" rx="2" fill="#070A12" fill-opacity="0.15"/>

</svg>
